# xmcd
#
# Track frame offsets: 
#        150
#        12326
#        30823
#        51446
#        63073
#
# Disc length: 1069 seconds
#
# Revision: 0
# Processed by: cddbd v1.5.2PL0 Copyright (c) Steve Scherf et al.
# Submitted via: ExactAudioCopy v0.95b4
#
DISCID=31042b05
DTITLE=Eilen Jewell - Heartache Boulevard
DYEAR=2007
DGENRE=Country
TTITLE0=Heartache Boulevard
TTITLE1=Fine And Mellow
TTITLE2=The Flood
TTITLE3=Head Over Heels
TTITLE4=Nobody's Business
EXTD=
EXTT0=
EXTT1=
EXTT2=
EXTT3=
EXTT4=
PLAYORDER=
